<mxfile host="app.diagrams.net" modified="2023-11-15T12:16:40.807Z" agent="Mozilla/5.0 (Macintosh; Intel Mac OS X 10_15_7) AppleWebKit/537.36 (KHTML, like Gecko) Chrome/119.0.0.0 Safari/537.36" etag="04aZGeBpEJJQRuLsshnE" version="22.1.1" type="device">
  <diagram id="xbc1pHsTY0j3PhtTnZs-" name="1 oldal">
    <mxGraphModel dx="5972" dy="2223" grid="1" gridSize="10" guides="1" tooltips="1" connect="1" arrows="1" fold="1" page="1" pageScale="1" pageWidth="827" pageHeight="1169" math="0" shadow="0">
      <root>
        <mxCell id="0" />
        <mxCell id="1" parent="0" />
        <mxCell id="x7HW12mAu4AbSY8qC2cj-3" value="L27NCJ_XDM" style="ellipse;shape=doubleEllipse;whiteSpace=wrap;html=1;" parent="1" vertex="1">
          <mxGeometry x="-1160" y="-270" width="144" height="90" as="geometry" />
        </mxCell>
        <mxCell id="x7HW12mAu4AbSY8qC2cj-17" value="Food" style="ellipse;shape=doubleEllipse;whiteSpace=wrap;html=1;" parent="1" vertex="1">
          <mxGeometry x="70" y="350" width="154" height="95" as="geometry" />
        </mxCell>
        <mxCell id="x7HW12mAu4AbSY8qC2cj-20" value="Owner" style="ellipse;shape=doubleEllipse;whiteSpace=wrap;html=1;" parent="1" vertex="1">
          <mxGeometry x="-3260" y="360" width="154" height="95" as="geometry" />
        </mxCell>
        <mxCell id="x7HW12mAu4AbSY8qC2cj-76" value="" style="group;fontStyle=4" parent="1" vertex="1" connectable="0">
          <mxGeometry x="1380" y="350" width="1416" height="735" as="geometry" />
        </mxCell>
        <mxCell id="x7HW12mAu4AbSY8qC2cj-13" value="Order" style="ellipse;shape=doubleEllipse;whiteSpace=wrap;html=1;" parent="x7HW12mAu4AbSY8qC2cj-76" vertex="1">
          <mxGeometry x="600" width="154" height="95" as="geometry" />
        </mxCell>
        <mxCell id="x7HW12mAu4AbSY8qC2cj-22" value="Rating" style="ellipse;whiteSpace=wrap;html=1;perimeterSpacing=1;dashed=1;" parent="x7HW12mAu4AbSY8qC2cj-76" vertex="1">
          <mxGeometry x="608" y="395" width="146" height="90" as="geometry" />
        </mxCell>
        <mxCell id="x7HW12mAu4AbSY8qC2cj-23" value="Taste" style="ellipse;whiteSpace=wrap;html=1;dashed=1;" parent="x7HW12mAu4AbSY8qC2cj-76" vertex="1">
          <mxGeometry x="474" y="545" width="120" height="80" as="geometry" />
        </mxCell>
        <mxCell id="x7HW12mAu4AbSY8qC2cj-24" value="Price" style="ellipse;whiteSpace=wrap;html=1;dashed=1;" parent="x7HW12mAu4AbSY8qC2cj-76" vertex="1">
          <mxGeometry x="617" y="545" width="120" height="80" as="geometry" />
        </mxCell>
        <mxCell id="x7HW12mAu4AbSY8qC2cj-25" value="Service" style="ellipse;whiteSpace=wrap;html=1;dashed=1;" parent="x7HW12mAu4AbSY8qC2cj-76" vertex="1">
          <mxGeometry x="780" y="545" width="120" height="80" as="geometry" />
        </mxCell>
        <mxCell id="x7HW12mAu4AbSY8qC2cj-28" value="PayedDate" style="ellipse;whiteSpace=wrap;html=1;perimeterSpacing=1;dashed=1;" parent="x7HW12mAu4AbSY8qC2cj-76" vertex="1">
          <mxGeometry x="328" y="395" width="146" height="90" as="geometry" />
        </mxCell>
        <mxCell id="x7HW12mAu4AbSY8qC2cj-29" value="CompleteTime" style="ellipse;whiteSpace=wrap;html=1;perimeterSpacing=1;dashed=1;" parent="x7HW12mAu4AbSY8qC2cj-76" vertex="1">
          <mxGeometry x="144" y="395" width="146" height="90" as="geometry" />
        </mxCell>
        <mxCell id="x7HW12mAu4AbSY8qC2cj-30" value="Duration" style="ellipse;whiteSpace=wrap;html=1;perimeterSpacing=1;dashed=1;" parent="x7HW12mAu4AbSY8qC2cj-76" vertex="1">
          <mxGeometry x="940" y="395" width="146" height="90" as="geometry" />
        </mxCell>
        <mxCell id="x7HW12mAu4AbSY8qC2cj-32" value="StartTime" style="ellipse;whiteSpace=wrap;html=1;perimeterSpacing=1;" parent="x7HW12mAu4AbSY8qC2cj-76" vertex="1">
          <mxGeometry x="1100" y="395" width="146" height="90" as="geometry" />
        </mxCell>
        <mxCell id="x7HW12mAu4AbSY8qC2cj-34" value="PaymentMethod" style="ellipse;whiteSpace=wrap;html=1;perimeterSpacing=1;" parent="x7HW12mAu4AbSY8qC2cj-76" vertex="1">
          <mxGeometry x="1270" y="400" width="146" height="90" as="geometry" />
        </mxCell>
        <mxCell id="x7HW12mAu4AbSY8qC2cj-35" value="" style="endArrow=none;html=1;rounded=0;exitX=0.5;exitY=0;exitDx=0;exitDy=0;entryX=0.5;entryY=1;entryDx=0;entryDy=0;" parent="x7HW12mAu4AbSY8qC2cj-76" source="x7HW12mAu4AbSY8qC2cj-29" target="x7HW12mAu4AbSY8qC2cj-13" edge="1">
          <mxGeometry width="50" height="50" relative="1" as="geometry">
            <mxPoint x="560" y="335" as="sourcePoint" />
            <mxPoint x="610" y="285" as="targetPoint" />
          </mxGeometry>
        </mxCell>
        <mxCell id="x7HW12mAu4AbSY8qC2cj-37" value="" style="rounded=0;whiteSpace=wrap;html=1;" parent="x7HW12mAu4AbSY8qC2cj-76" vertex="1">
          <mxGeometry x="194" y="535" width="46" height="70" as="geometry" />
        </mxCell>
        <mxCell id="x7HW12mAu4AbSY8qC2cj-38" value="" style="rounded=0;whiteSpace=wrap;html=1;" parent="x7HW12mAu4AbSY8qC2cj-76" vertex="1">
          <mxGeometry x="378" y="535" width="46" height="70" as="geometry" />
        </mxCell>
        <mxCell id="x7HW12mAu4AbSY8qC2cj-39" value="" style="rounded=0;whiteSpace=wrap;html=1;" parent="x7HW12mAu4AbSY8qC2cj-76" vertex="1">
          <mxGeometry x="510" y="665" width="46" height="70" as="geometry" />
        </mxCell>
        <mxCell id="x7HW12mAu4AbSY8qC2cj-40" value="" style="rounded=0;whiteSpace=wrap;html=1;" parent="x7HW12mAu4AbSY8qC2cj-76" vertex="1">
          <mxGeometry x="654" y="665" width="46" height="70" as="geometry" />
        </mxCell>
        <mxCell id="x7HW12mAu4AbSY8qC2cj-41" value="" style="rounded=0;whiteSpace=wrap;html=1;" parent="x7HW12mAu4AbSY8qC2cj-76" vertex="1">
          <mxGeometry x="817" y="665" width="46" height="70" as="geometry" />
        </mxCell>
        <mxCell id="x7HW12mAu4AbSY8qC2cj-42" value="" style="rounded=0;whiteSpace=wrap;html=1;" parent="x7HW12mAu4AbSY8qC2cj-76" vertex="1">
          <mxGeometry x="990" y="535" width="46" height="70" as="geometry" />
        </mxCell>
        <mxCell id="x7HW12mAu4AbSY8qC2cj-43" value="" style="rounded=0;whiteSpace=wrap;html=1;" parent="x7HW12mAu4AbSY8qC2cj-76" vertex="1">
          <mxGeometry x="1150" y="535" width="46" height="70" as="geometry" />
        </mxCell>
        <mxCell id="x7HW12mAu4AbSY8qC2cj-45" value="" style="rounded=0;whiteSpace=wrap;html=1;" parent="x7HW12mAu4AbSY8qC2cj-76" vertex="1">
          <mxGeometry x="1320" y="540" width="46" height="70" as="geometry" />
        </mxCell>
        <mxCell id="x7HW12mAu4AbSY8qC2cj-48" value="" style="endArrow=none;html=1;rounded=0;exitX=0.5;exitY=0;exitDx=0;exitDy=0;entryX=0.5;entryY=1;entryDx=0;entryDy=0;" parent="x7HW12mAu4AbSY8qC2cj-76" source="x7HW12mAu4AbSY8qC2cj-28" target="x7HW12mAu4AbSY8qC2cj-13" edge="1">
          <mxGeometry width="50" height="50" relative="1" as="geometry">
            <mxPoint x="390" y="335" as="sourcePoint" />
            <mxPoint x="440" y="285" as="targetPoint" />
          </mxGeometry>
        </mxCell>
        <mxCell id="x7HW12mAu4AbSY8qC2cj-49" value="" style="endArrow=none;html=1;rounded=0;exitX=0.5;exitY=0;exitDx=0;exitDy=0;" parent="x7HW12mAu4AbSY8qC2cj-76" source="x7HW12mAu4AbSY8qC2cj-22" target="x7HW12mAu4AbSY8qC2cj-13" edge="1">
          <mxGeometry width="50" height="50" relative="1" as="geometry">
            <mxPoint x="720" y="315" as="sourcePoint" />
            <mxPoint x="770" y="265" as="targetPoint" />
          </mxGeometry>
        </mxCell>
        <mxCell id="x7HW12mAu4AbSY8qC2cj-50" value="" style="endArrow=none;html=1;rounded=0;entryX=0.5;entryY=1;entryDx=0;entryDy=0;exitX=0.5;exitY=0;exitDx=0;exitDy=0;" parent="x7HW12mAu4AbSY8qC2cj-76" source="x7HW12mAu4AbSY8qC2cj-30" target="x7HW12mAu4AbSY8qC2cj-13" edge="1">
          <mxGeometry width="50" height="50" relative="1" as="geometry">
            <mxPoint x="910" y="285" as="sourcePoint" />
            <mxPoint x="960" y="235" as="targetPoint" />
          </mxGeometry>
        </mxCell>
        <mxCell id="x7HW12mAu4AbSY8qC2cj-51" value="" style="endArrow=none;html=1;rounded=0;exitX=0.5;exitY=0;exitDx=0;exitDy=0;" parent="x7HW12mAu4AbSY8qC2cj-76" source="x7HW12mAu4AbSY8qC2cj-32" edge="1">
          <mxGeometry width="50" height="50" relative="1" as="geometry">
            <mxPoint x="1120" y="215" as="sourcePoint" />
            <mxPoint x="680" y="95" as="targetPoint" />
          </mxGeometry>
        </mxCell>
        <mxCell id="x7HW12mAu4AbSY8qC2cj-53" value="" style="endArrow=none;html=1;rounded=0;exitX=0.5;exitY=0;exitDx=0;exitDy=0;" parent="x7HW12mAu4AbSY8qC2cj-76" source="x7HW12mAu4AbSY8qC2cj-34" edge="1">
          <mxGeometry width="50" height="50" relative="1" as="geometry">
            <mxPoint x="1300" y="215" as="sourcePoint" />
            <mxPoint x="680" y="95" as="targetPoint" />
          </mxGeometry>
        </mxCell>
        <mxCell id="x7HW12mAu4AbSY8qC2cj-54" value="" style="endArrow=none;html=1;rounded=0;entryX=0.5;entryY=1;entryDx=0;entryDy=0;exitX=0.5;exitY=0;exitDx=0;exitDy=0;" parent="x7HW12mAu4AbSY8qC2cj-76" source="x7HW12mAu4AbSY8qC2cj-25" target="x7HW12mAu4AbSY8qC2cj-22" edge="1">
          <mxGeometry width="50" height="50" relative="1" as="geometry">
            <mxPoint x="817" y="495" as="sourcePoint" />
            <mxPoint x="867" y="445" as="targetPoint" />
          </mxGeometry>
        </mxCell>
        <mxCell id="x7HW12mAu4AbSY8qC2cj-55" value="" style="endArrow=none;html=1;rounded=0;entryX=0.5;entryY=1;entryDx=0;entryDy=0;exitX=0.5;exitY=0;exitDx=0;exitDy=0;" parent="x7HW12mAu4AbSY8qC2cj-76" source="x7HW12mAu4AbSY8qC2cj-23" target="x7HW12mAu4AbSY8qC2cj-22" edge="1">
          <mxGeometry width="50" height="50" relative="1" as="geometry">
            <mxPoint x="490" y="495" as="sourcePoint" />
            <mxPoint x="540" y="445" as="targetPoint" />
          </mxGeometry>
        </mxCell>
        <mxCell id="x7HW12mAu4AbSY8qC2cj-56" value="" style="endArrow=none;html=1;rounded=0;entryX=0.5;entryY=1;entryDx=0;entryDy=0;exitX=0.5;exitY=0;exitDx=0;exitDy=0;" parent="x7HW12mAu4AbSY8qC2cj-76" source="x7HW12mAu4AbSY8qC2cj-24" target="x7HW12mAu4AbSY8qC2cj-22" edge="1">
          <mxGeometry width="50" height="50" relative="1" as="geometry">
            <mxPoint x="730" y="535" as="sourcePoint" />
            <mxPoint x="780" y="485" as="targetPoint" />
          </mxGeometry>
        </mxCell>
        <mxCell id="x7HW12mAu4AbSY8qC2cj-57" value="" style="endArrow=none;html=1;rounded=0;entryX=0.5;entryY=1;entryDx=0;entryDy=0;exitX=0.5;exitY=0;exitDx=0;exitDy=0;" parent="x7HW12mAu4AbSY8qC2cj-76" source="x7HW12mAu4AbSY8qC2cj-42" target="x7HW12mAu4AbSY8qC2cj-30" edge="1">
          <mxGeometry width="50" height="50" relative="1" as="geometry">
            <mxPoint x="940" y="565" as="sourcePoint" />
            <mxPoint x="990" y="515" as="targetPoint" />
          </mxGeometry>
        </mxCell>
        <mxCell id="x7HW12mAu4AbSY8qC2cj-58" value="" style="endArrow=none;html=1;rounded=0;entryX=0.5;entryY=1;entryDx=0;entryDy=0;exitX=0.5;exitY=0;exitDx=0;exitDy=0;" parent="x7HW12mAu4AbSY8qC2cj-76" source="x7HW12mAu4AbSY8qC2cj-43" target="x7HW12mAu4AbSY8qC2cj-32" edge="1">
          <mxGeometry width="50" height="50" relative="1" as="geometry">
            <mxPoint x="1160" y="555" as="sourcePoint" />
            <mxPoint x="1210" y="505" as="targetPoint" />
          </mxGeometry>
        </mxCell>
        <mxCell id="x7HW12mAu4AbSY8qC2cj-60" value="" style="endArrow=none;html=1;rounded=0;entryX=0.5;entryY=1;entryDx=0;entryDy=0;exitX=0.5;exitY=0;exitDx=0;exitDy=0;" parent="x7HW12mAu4AbSY8qC2cj-76" source="x7HW12mAu4AbSY8qC2cj-45" target="x7HW12mAu4AbSY8qC2cj-34" edge="1">
          <mxGeometry width="50" height="50" relative="1" as="geometry">
            <mxPoint x="1430" y="570" as="sourcePoint" />
            <mxPoint x="1480" y="520" as="targetPoint" />
          </mxGeometry>
        </mxCell>
        <mxCell id="x7HW12mAu4AbSY8qC2cj-61" value="" style="endArrow=none;html=1;rounded=0;entryX=0.5;entryY=1;entryDx=0;entryDy=0;" parent="x7HW12mAu4AbSY8qC2cj-76" source="x7HW12mAu4AbSY8qC2cj-37" target="x7HW12mAu4AbSY8qC2cj-29" edge="1">
          <mxGeometry width="50" height="50" relative="1" as="geometry">
            <mxPoint x="110" y="575" as="sourcePoint" />
            <mxPoint x="160" y="525" as="targetPoint" />
          </mxGeometry>
        </mxCell>
        <mxCell id="x7HW12mAu4AbSY8qC2cj-62" value="" style="endArrow=none;html=1;rounded=0;" parent="x7HW12mAu4AbSY8qC2cj-76" source="x7HW12mAu4AbSY8qC2cj-38" target="x7HW12mAu4AbSY8qC2cj-28" edge="1">
          <mxGeometry width="50" height="50" relative="1" as="geometry">
            <mxPoint x="270" y="655" as="sourcePoint" />
            <mxPoint x="320" y="605" as="targetPoint" />
          </mxGeometry>
        </mxCell>
        <mxCell id="x7HW12mAu4AbSY8qC2cj-63" value="" style="endArrow=none;html=1;rounded=0;" parent="x7HW12mAu4AbSY8qC2cj-76" source="x7HW12mAu4AbSY8qC2cj-39" target="x7HW12mAu4AbSY8qC2cj-23" edge="1">
          <mxGeometry width="50" height="50" relative="1" as="geometry">
            <mxPoint x="360" y="795" as="sourcePoint" />
            <mxPoint x="410" y="745" as="targetPoint" />
          </mxGeometry>
        </mxCell>
        <mxCell id="x7HW12mAu4AbSY8qC2cj-64" value="" style="endArrow=none;html=1;rounded=0;" parent="x7HW12mAu4AbSY8qC2cj-76" source="x7HW12mAu4AbSY8qC2cj-40" target="x7HW12mAu4AbSY8qC2cj-24" edge="1">
          <mxGeometry width="50" height="50" relative="1" as="geometry">
            <mxPoint x="610" y="695" as="sourcePoint" />
            <mxPoint x="660" y="645" as="targetPoint" />
          </mxGeometry>
        </mxCell>
        <mxCell id="x7HW12mAu4AbSY8qC2cj-65" value="" style="endArrow=none;html=1;rounded=0;" parent="x7HW12mAu4AbSY8qC2cj-76" source="x7HW12mAu4AbSY8qC2cj-41" target="x7HW12mAu4AbSY8qC2cj-25" edge="1">
          <mxGeometry width="50" height="50" relative="1" as="geometry">
            <mxPoint x="1070" y="735" as="sourcePoint" />
            <mxPoint x="1120" y="685" as="targetPoint" />
          </mxGeometry>
        </mxCell>
        <mxCell id="x7HW12mAu4AbSY8qC2cj-72" value="" style="endArrow=none;html=1;rounded=0;exitX=0.5;exitY=0;exitDx=0;exitDy=0;" parent="x7HW12mAu4AbSY8qC2cj-76" source="x7HW12mAu4AbSY8qC2cj-71" edge="1">
          <mxGeometry width="50" height="50" relative="1" as="geometry">
            <mxPoint x="120" y="265" as="sourcePoint" />
            <mxPoint x="680" y="95" as="targetPoint" />
          </mxGeometry>
        </mxCell>
        <mxCell id="x7HW12mAu4AbSY8qC2cj-74" value="" style="group;fontStyle=4" parent="x7HW12mAu4AbSY8qC2cj-76" vertex="1" connectable="0">
          <mxGeometry y="400" width="80" height="80" as="geometry" />
        </mxCell>
        <mxCell id="x7HW12mAu4AbSY8qC2cj-71" value="&lt;u&gt;ID&lt;/u&gt;" style="rhombus;whiteSpace=wrap;html=1;rotation=0;fontStyle=0;fillStyle=auto;" parent="x7HW12mAu4AbSY8qC2cj-74" vertex="1">
          <mxGeometry width="80" height="80" as="geometry" />
        </mxCell>
        <mxCell id="x7HW12mAu4AbSY8qC2cj-118" value="OrderItem" style="ellipse;shape=doubleEllipse;whiteSpace=wrap;html=1;" parent="1" vertex="1">
          <mxGeometry x="920" y="350" width="154" height="95" as="geometry" />
        </mxCell>
        <mxCell id="x7HW12mAu4AbSY8qC2cj-123" value="State" style="ellipse;whiteSpace=wrap;html=1;perimeterSpacing=1;" parent="1" vertex="1">
          <mxGeometry x="1007" y="745" width="146" height="90" as="geometry" />
        </mxCell>
        <mxCell id="x7HW12mAu4AbSY8qC2cj-124" value="QTY" style="ellipse;whiteSpace=wrap;html=1;perimeterSpacing=1;" parent="1" vertex="1">
          <mxGeometry x="840" y="745" width="146" height="90" as="geometry" />
        </mxCell>
        <mxCell id="x7HW12mAu4AbSY8qC2cj-128" value="" style="endArrow=none;html=1;rounded=0;exitX=0.5;exitY=0;exitDx=0;exitDy=0;entryX=0.5;entryY=1;entryDx=0;entryDy=0;" parent="1" source="x7HW12mAu4AbSY8qC2cj-124" target="x7HW12mAu4AbSY8qC2cj-118" edge="1">
          <mxGeometry width="50" height="50" relative="1" as="geometry">
            <mxPoint x="880" y="685" as="sourcePoint" />
            <mxPoint x="930" y="635" as="targetPoint" />
          </mxGeometry>
        </mxCell>
        <mxCell id="x7HW12mAu4AbSY8qC2cj-129" value="" style="rounded=0;whiteSpace=wrap;html=1;" parent="1" vertex="1">
          <mxGeometry x="890" y="885" width="46" height="70" as="geometry" />
        </mxCell>
        <mxCell id="x7HW12mAu4AbSY8qC2cj-130" value="" style="rounded=0;whiteSpace=wrap;html=1;" parent="1" vertex="1">
          <mxGeometry x="1057" y="885" width="46" height="70" as="geometry" />
        </mxCell>
        <mxCell id="x7HW12mAu4AbSY8qC2cj-137" value="" style="endArrow=none;html=1;rounded=0;exitX=0.5;exitY=0;exitDx=0;exitDy=0;entryX=0.5;entryY=1;entryDx=0;entryDy=0;" parent="1" source="x7HW12mAu4AbSY8qC2cj-123" target="x7HW12mAu4AbSY8qC2cj-118" edge="1">
          <mxGeometry width="50" height="50" relative="1" as="geometry">
            <mxPoint x="710" y="685" as="sourcePoint" />
            <mxPoint x="760" y="635" as="targetPoint" />
          </mxGeometry>
        </mxCell>
        <mxCell id="x7HW12mAu4AbSY8qC2cj-148" value="" style="endArrow=none;html=1;rounded=0;entryX=0.5;entryY=1;entryDx=0;entryDy=0;" parent="1" source="x7HW12mAu4AbSY8qC2cj-129" target="x7HW12mAu4AbSY8qC2cj-124" edge="1">
          <mxGeometry width="50" height="50" relative="1" as="geometry">
            <mxPoint x="806" y="925" as="sourcePoint" />
            <mxPoint x="856" y="875" as="targetPoint" />
          </mxGeometry>
        </mxCell>
        <mxCell id="x7HW12mAu4AbSY8qC2cj-149" value="" style="endArrow=none;html=1;rounded=0;" parent="1" source="x7HW12mAu4AbSY8qC2cj-130" target="x7HW12mAu4AbSY8qC2cj-123" edge="1">
          <mxGeometry width="50" height="50" relative="1" as="geometry">
            <mxPoint x="949" y="1005" as="sourcePoint" />
            <mxPoint x="999" y="955" as="targetPoint" />
          </mxGeometry>
        </mxCell>
        <mxCell id="x7HW12mAu4AbSY8qC2cj-153" value="" style="endArrow=none;html=1;rounded=0;exitX=0.5;exitY=0;exitDx=0;exitDy=0;" parent="1" source="x7HW12mAu4AbSY8qC2cj-155" edge="1">
          <mxGeometry width="50" height="50" relative="1" as="geometry">
            <mxPoint x="440" y="615" as="sourcePoint" />
            <mxPoint x="1000" y="445" as="targetPoint" />
          </mxGeometry>
        </mxCell>
        <mxCell id="x7HW12mAu4AbSY8qC2cj-154" value="c" style="group" parent="1" vertex="1" connectable="0">
          <mxGeometry x="730" y="750" width="80" height="80" as="geometry" />
        </mxCell>
        <mxCell id="x7HW12mAu4AbSY8qC2cj-155" value="FoodFK" style="rhombus;whiteSpace=wrap;html=1;rotation=0;fontStyle=0;fillStyle=auto;" parent="x7HW12mAu4AbSY8qC2cj-154" vertex="1">
          <mxGeometry width="80" height="80" as="geometry" />
        </mxCell>
        <mxCell id="x7HW12mAu4AbSY8qC2cj-156" value="" style="endArrow=none;dashed=1;html=1;rounded=0;fontFamily=Helvetica;fontSize=12;fontColor=default;" parent="x7HW12mAu4AbSY8qC2cj-154" edge="1">
          <mxGeometry width="50" height="50" relative="1" as="geometry">
            <mxPoint x="25" y="45" as="sourcePoint" />
            <mxPoint x="55" y="45" as="targetPoint" />
          </mxGeometry>
        </mxCell>
        <mxCell id="x7HW12mAu4AbSY8qC2cj-197" value="c" style="group" parent="1" vertex="1" connectable="0">
          <mxGeometry x="1280" y="750" width="80" height="80" as="geometry" />
        </mxCell>
        <mxCell id="x7HW12mAu4AbSY8qC2cj-198" value="OrderFK" style="rhombus;whiteSpace=wrap;html=1;rotation=0;fontStyle=0;fillStyle=auto;" parent="x7HW12mAu4AbSY8qC2cj-197" vertex="1">
          <mxGeometry width="80" height="80" as="geometry" />
        </mxCell>
        <mxCell id="x7HW12mAu4AbSY8qC2cj-199" value="" style="endArrow=none;dashed=1;html=1;rounded=0;fontFamily=Helvetica;fontSize=12;fontColor=default;" parent="x7HW12mAu4AbSY8qC2cj-197" edge="1">
          <mxGeometry width="50" height="50" relative="1" as="geometry">
            <mxPoint x="25" y="45" as="sourcePoint" />
            <mxPoint x="55" y="45" as="targetPoint" />
          </mxGeometry>
        </mxCell>
        <mxCell id="x7HW12mAu4AbSY8qC2cj-200" value="" style="endArrow=none;html=1;rounded=0;fontFamily=Helvetica;fontSize=12;fontColor=default;exitX=0.5;exitY=0;exitDx=0;exitDy=0;" parent="1" source="x7HW12mAu4AbSY8qC2cj-198" edge="1">
          <mxGeometry width="50" height="50" relative="1" as="geometry">
            <mxPoint x="1110" y="710" as="sourcePoint" />
            <mxPoint x="1000" y="450" as="targetPoint" />
          </mxGeometry>
        </mxCell>
        <mxCell id="x7HW12mAu4AbSY8qC2cj-201" value="c" style="group;fontStyle=4" parent="1" vertex="1" connectable="0">
          <mxGeometry x="1180" y="750" width="80" height="80" as="geometry" />
        </mxCell>
        <mxCell id="x7HW12mAu4AbSY8qC2cj-202" value="&lt;u&gt;ID&lt;/u&gt;" style="rhombus;whiteSpace=wrap;html=1;rotation=0;fontStyle=0;fillStyle=auto;" parent="x7HW12mAu4AbSY8qC2cj-201" vertex="1">
          <mxGeometry width="80" height="80" as="geometry" />
        </mxCell>
        <mxCell id="x7HW12mAu4AbSY8qC2cj-204" style="edgeStyle=orthogonalEdgeStyle;rounded=0;orthogonalLoop=1;jettySize=auto;html=1;entryX=0.5;entryY=1;entryDx=0;entryDy=0;fontFamily=Helvetica;fontSize=12;fontColor=default;dashed=1;" parent="1" source="x7HW12mAu4AbSY8qC2cj-71" target="x7HW12mAu4AbSY8qC2cj-198" edge="1">
          <mxGeometry relative="1" as="geometry">
            <Array as="points">
              <mxPoint x="1420" y="900" />
              <mxPoint x="1320" y="900" />
            </Array>
          </mxGeometry>
        </mxCell>
        <mxCell id="x7HW12mAu4AbSY8qC2cj-205" value="Name" style="ellipse;whiteSpace=wrap;html=1;perimeterSpacing=1;" parent="1" vertex="1">
          <mxGeometry x="-180" y="750" width="146" height="90" as="geometry" />
        </mxCell>
        <mxCell id="x7HW12mAu4AbSY8qC2cj-206" value="ImageId" style="ellipse;whiteSpace=wrap;html=1;perimeterSpacing=1;" parent="1" vertex="1">
          <mxGeometry y="750" width="146" height="90" as="geometry" />
        </mxCell>
        <mxCell id="x7HW12mAu4AbSY8qC2cj-207" value="Description" style="ellipse;whiteSpace=wrap;html=1;perimeterSpacing=1;" parent="1" vertex="1">
          <mxGeometry x="178" y="750" width="146" height="90" as="geometry" />
        </mxCell>
        <mxCell id="x7HW12mAu4AbSY8qC2cj-208" value="Price" style="ellipse;whiteSpace=wrap;html=1;perimeterSpacing=1;" parent="1" vertex="1">
          <mxGeometry x="350" y="750" width="146" height="90" as="geometry" />
        </mxCell>
        <mxCell id="x7HW12mAu4AbSY8qC2cj-209" value="c" style="group" parent="1" vertex="1" connectable="0">
          <mxGeometry x="-330" y="750" width="100" height="100" as="geometry" />
        </mxCell>
        <mxCell id="x7HW12mAu4AbSY8qC2cj-210" value="RestaurantFK" style="rhombus;whiteSpace=wrap;html=1;rotation=0;fontStyle=0;fillStyle=auto;" parent="x7HW12mAu4AbSY8qC2cj-209" vertex="1">
          <mxGeometry width="100" height="100" as="geometry" />
        </mxCell>
        <mxCell id="x7HW12mAu4AbSY8qC2cj-211" value="" style="endArrow=none;dashed=1;html=1;rounded=0;fontFamily=Helvetica;fontSize=12;fontColor=default;" parent="x7HW12mAu4AbSY8qC2cj-209" edge="1">
          <mxGeometry width="50" height="50" relative="1" as="geometry">
            <mxPoint x="31.25" y="56.25" as="sourcePoint" />
            <mxPoint x="68.75" y="56.25" as="targetPoint" />
          </mxGeometry>
        </mxCell>
        <mxCell id="x7HW12mAu4AbSY8qC2cj-214" value="c" style="group" parent="1" vertex="1" connectable="0">
          <mxGeometry x="530" y="755" width="90" height="85" as="geometry" />
        </mxCell>
        <mxCell id="x7HW12mAu4AbSY8qC2cj-215" value="ID" style="rhombus;whiteSpace=wrap;html=1;rotation=0;fontStyle=0;fillStyle=auto;" parent="x7HW12mAu4AbSY8qC2cj-214" vertex="1">
          <mxGeometry width="90" height="85" as="geometry" />
        </mxCell>
        <mxCell id="x7HW12mAu4AbSY8qC2cj-216" value="" style="endArrow=none;dashed=1;html=1;rounded=0;fontFamily=Helvetica;fontSize=12;fontColor=default;" parent="x7HW12mAu4AbSY8qC2cj-214" edge="1">
          <mxGeometry width="50" height="50" relative="1" as="geometry">
            <mxPoint x="28.125" y="47.8125" as="sourcePoint" />
            <mxPoint x="61.875" y="47.8125" as="targetPoint" />
          </mxGeometry>
        </mxCell>
        <mxCell id="x7HW12mAu4AbSY8qC2cj-217" value="" style="rounded=0;whiteSpace=wrap;html=1;" parent="1" vertex="1">
          <mxGeometry x="400" y="885" width="46" height="70" as="geometry" />
        </mxCell>
        <mxCell id="x7HW12mAu4AbSY8qC2cj-218" value="" style="rounded=0;whiteSpace=wrap;html=1;" parent="1" vertex="1">
          <mxGeometry x="228" y="885" width="46" height="70" as="geometry" />
        </mxCell>
        <mxCell id="x7HW12mAu4AbSY8qC2cj-219" value="" style="rounded=0;whiteSpace=wrap;html=1;" parent="1" vertex="1">
          <mxGeometry x="50" y="885" width="46" height="70" as="geometry" />
        </mxCell>
        <mxCell id="x7HW12mAu4AbSY8qC2cj-220" value="" style="rounded=0;whiteSpace=wrap;html=1;" parent="1" vertex="1">
          <mxGeometry x="-130" y="885" width="46" height="70" as="geometry" />
        </mxCell>
        <mxCell id="x7HW12mAu4AbSY8qC2cj-221" style="edgeStyle=orthogonalEdgeStyle;rounded=0;orthogonalLoop=1;jettySize=auto;html=1;entryX=0.5;entryY=1;entryDx=0;entryDy=0;dashed=1;fontFamily=Helvetica;fontSize=12;fontColor=default;" parent="1" source="x7HW12mAu4AbSY8qC2cj-215" target="x7HW12mAu4AbSY8qC2cj-155" edge="1">
          <mxGeometry relative="1" as="geometry">
            <Array as="points">
              <mxPoint x="575" y="900" />
              <mxPoint x="770" y="900" />
            </Array>
          </mxGeometry>
        </mxCell>
        <mxCell id="x7HW12mAu4AbSY8qC2cj-222" value="" style="endArrow=none;html=1;rounded=0;fontFamily=Helvetica;fontSize=12;fontColor=default;entryX=0.5;entryY=1;entryDx=0;entryDy=0;exitX=0.5;exitY=0;exitDx=0;exitDy=0;" parent="1" source="x7HW12mAu4AbSY8qC2cj-220" target="x7HW12mAu4AbSY8qC2cj-205" edge="1">
          <mxGeometry width="50" height="50" relative="1" as="geometry">
            <mxPoint x="-190" y="900" as="sourcePoint" />
            <mxPoint x="-140" y="850" as="targetPoint" />
          </mxGeometry>
        </mxCell>
        <mxCell id="x7HW12mAu4AbSY8qC2cj-223" value="" style="endArrow=none;html=1;rounded=0;fontFamily=Helvetica;fontSize=12;fontColor=default;entryX=0.5;entryY=1;entryDx=0;entryDy=0;exitX=0.5;exitY=0;exitDx=0;exitDy=0;" parent="1" source="x7HW12mAu4AbSY8qC2cj-219" target="x7HW12mAu4AbSY8qC2cj-206" edge="1">
          <mxGeometry width="50" height="50" relative="1" as="geometry">
            <mxPoint x="-10" y="880" as="sourcePoint" />
            <mxPoint x="40" y="830" as="targetPoint" />
          </mxGeometry>
        </mxCell>
        <mxCell id="x7HW12mAu4AbSY8qC2cj-224" value="" style="endArrow=none;html=1;rounded=0;fontFamily=Helvetica;fontSize=12;fontColor=default;entryX=0.5;entryY=1;entryDx=0;entryDy=0;exitX=0.5;exitY=0;exitDx=0;exitDy=0;" parent="1" source="x7HW12mAu4AbSY8qC2cj-218" target="x7HW12mAu4AbSY8qC2cj-207" edge="1">
          <mxGeometry width="50" height="50" relative="1" as="geometry">
            <mxPoint x="140" y="890" as="sourcePoint" />
            <mxPoint x="190" y="840" as="targetPoint" />
          </mxGeometry>
        </mxCell>
        <mxCell id="x7HW12mAu4AbSY8qC2cj-226" value="" style="endArrow=none;html=1;rounded=0;fontFamily=Helvetica;fontSize=12;fontColor=default;entryX=0.5;entryY=1;entryDx=0;entryDy=0;exitX=0.5;exitY=0;exitDx=0;exitDy=0;" parent="1" source="x7HW12mAu4AbSY8qC2cj-217" target="x7HW12mAu4AbSY8qC2cj-208" edge="1">
          <mxGeometry width="50" height="50" relative="1" as="geometry">
            <mxPoint x="320" y="910" as="sourcePoint" />
            <mxPoint x="370" y="860" as="targetPoint" />
          </mxGeometry>
        </mxCell>
        <mxCell id="x7HW12mAu4AbSY8qC2cj-229" value="" style="endArrow=none;html=1;rounded=0;fontFamily=Helvetica;fontSize=12;fontColor=default;entryX=0.5;entryY=1;entryDx=0;entryDy=0;exitX=0.5;exitY=0;exitDx=0;exitDy=0;" parent="1" source="x7HW12mAu4AbSY8qC2cj-205" target="x7HW12mAu4AbSY8qC2cj-17" edge="1">
          <mxGeometry width="50" height="50" relative="1" as="geometry">
            <mxPoint x="-100" y="680" as="sourcePoint" />
            <mxPoint x="-50" y="630" as="targetPoint" />
          </mxGeometry>
        </mxCell>
        <mxCell id="x7HW12mAu4AbSY8qC2cj-230" value="" style="endArrow=none;html=1;rounded=0;fontFamily=Helvetica;fontSize=12;fontColor=default;entryX=0.5;entryY=1;entryDx=0;entryDy=0;exitX=0.5;exitY=0;exitDx=0;exitDy=0;" parent="1" source="x7HW12mAu4AbSY8qC2cj-206" target="x7HW12mAu4AbSY8qC2cj-17" edge="1">
          <mxGeometry width="50" height="50" relative="1" as="geometry">
            <mxPoint x="40" y="690" as="sourcePoint" />
            <mxPoint x="90" y="640" as="targetPoint" />
          </mxGeometry>
        </mxCell>
        <mxCell id="x7HW12mAu4AbSY8qC2cj-231" value="" style="endArrow=none;html=1;rounded=0;fontFamily=Helvetica;fontSize=12;fontColor=default;entryX=0.5;entryY=1;entryDx=0;entryDy=0;exitX=0.5;exitY=0;exitDx=0;exitDy=0;" parent="1" source="x7HW12mAu4AbSY8qC2cj-207" target="x7HW12mAu4AbSY8qC2cj-17" edge="1">
          <mxGeometry width="50" height="50" relative="1" as="geometry">
            <mxPoint x="210" y="690" as="sourcePoint" />
            <mxPoint x="260" y="640" as="targetPoint" />
          </mxGeometry>
        </mxCell>
        <mxCell id="x7HW12mAu4AbSY8qC2cj-232" value="" style="endArrow=none;html=1;rounded=0;fontFamily=Helvetica;fontSize=12;fontColor=default;entryX=0.5;entryY=1;entryDx=0;entryDy=0;exitX=0.5;exitY=0;exitDx=0;exitDy=0;" parent="1" source="x7HW12mAu4AbSY8qC2cj-208" target="x7HW12mAu4AbSY8qC2cj-17" edge="1">
          <mxGeometry width="50" height="50" relative="1" as="geometry">
            <mxPoint x="410" y="690" as="sourcePoint" />
            <mxPoint x="460" y="640" as="targetPoint" />
          </mxGeometry>
        </mxCell>
        <mxCell id="x7HW12mAu4AbSY8qC2cj-233" value="" style="endArrow=none;html=1;rounded=0;fontFamily=Helvetica;fontSize=12;fontColor=default;entryX=0.5;entryY=1;entryDx=0;entryDy=0;exitX=0.5;exitY=0;exitDx=0;exitDy=0;" parent="1" source="x7HW12mAu4AbSY8qC2cj-210" target="x7HW12mAu4AbSY8qC2cj-17" edge="1">
          <mxGeometry width="50" height="50" relative="1" as="geometry">
            <mxPoint x="-220" y="650" as="sourcePoint" />
            <mxPoint x="-170" y="600" as="targetPoint" />
          </mxGeometry>
        </mxCell>
        <mxCell id="x7HW12mAu4AbSY8qC2cj-273" value="" style="group;fontStyle=4;dashed=1;" parent="1" vertex="1" connectable="0">
          <mxGeometry x="-1760" y="350" width="1416" height="735" as="geometry" />
        </mxCell>
        <mxCell id="x7HW12mAu4AbSY8qC2cj-274" value="Restaurant" style="ellipse;shape=doubleEllipse;whiteSpace=wrap;html=1;" parent="x7HW12mAu4AbSY8qC2cj-273" vertex="1">
          <mxGeometry x="600" width="154" height="95" as="geometry" />
        </mxCell>
        <mxCell id="x7HW12mAu4AbSY8qC2cj-275" value="Address" style="ellipse;whiteSpace=wrap;html=1;perimeterSpacing=1;dashed=1;" parent="x7HW12mAu4AbSY8qC2cj-273" vertex="1">
          <mxGeometry x="608" y="395" width="146" height="90" as="geometry" />
        </mxCell>
        <mxCell id="x7HW12mAu4AbSY8qC2cj-276" value="City" style="ellipse;whiteSpace=wrap;html=1;dashed=1;" parent="x7HW12mAu4AbSY8qC2cj-273" vertex="1">
          <mxGeometry x="540" y="545" width="120" height="80" as="geometry" />
        </mxCell>
        <mxCell id="x7HW12mAu4AbSY8qC2cj-277" value="Street" style="ellipse;whiteSpace=wrap;html=1;dashed=1;" parent="x7HW12mAu4AbSY8qC2cj-273" vertex="1">
          <mxGeometry x="683" y="545" width="120" height="80" as="geometry" />
        </mxCell>
        <mxCell id="x7HW12mAu4AbSY8qC2cj-278" value="Number" style="ellipse;whiteSpace=wrap;html=1;dashed=1;" parent="x7HW12mAu4AbSY8qC2cj-273" vertex="1">
          <mxGeometry x="846" y="545" width="120" height="80" as="geometry" />
        </mxCell>
        <mxCell id="x7HW12mAu4AbSY8qC2cj-279" value="Country" style="ellipse;whiteSpace=wrap;html=1;perimeterSpacing=1;dashed=1;" parent="x7HW12mAu4AbSY8qC2cj-273" vertex="1">
          <mxGeometry x="396" y="540" width="122" height="85" as="geometry" />
        </mxCell>
        <mxCell id="x7HW12mAu4AbSY8qC2cj-282" value="Name" style="ellipse;whiteSpace=wrap;html=1;perimeterSpacing=1;" parent="x7HW12mAu4AbSY8qC2cj-273" vertex="1">
          <mxGeometry x="240" y="407.5" width="136" height="85" as="geometry" />
        </mxCell>
        <mxCell id="x7HW12mAu4AbSY8qC2cj-286" value="" style="rounded=0;whiteSpace=wrap;html=1;" parent="x7HW12mAu4AbSY8qC2cj-273" vertex="1">
          <mxGeometry x="434" y="665" width="46" height="70" as="geometry" />
        </mxCell>
        <mxCell id="x7HW12mAu4AbSY8qC2cj-287" value="" style="rounded=0;whiteSpace=wrap;html=1;" parent="x7HW12mAu4AbSY8qC2cj-273" vertex="1">
          <mxGeometry x="576" y="665" width="46" height="70" as="geometry" />
        </mxCell>
        <mxCell id="x7HW12mAu4AbSY8qC2cj-288" value="" style="rounded=0;whiteSpace=wrap;html=1;" parent="x7HW12mAu4AbSY8qC2cj-273" vertex="1">
          <mxGeometry x="720" y="665" width="46" height="70" as="geometry" />
        </mxCell>
        <mxCell id="x7HW12mAu4AbSY8qC2cj-289" value="" style="rounded=0;whiteSpace=wrap;html=1;" parent="x7HW12mAu4AbSY8qC2cj-273" vertex="1">
          <mxGeometry x="883" y="665" width="46" height="70" as="geometry" />
        </mxCell>
        <mxCell id="x7HW12mAu4AbSY8qC2cj-291" value="" style="rounded=0;whiteSpace=wrap;html=1;" parent="x7HW12mAu4AbSY8qC2cj-273" vertex="1">
          <mxGeometry x="285" y="547.5" width="46" height="70" as="geometry" />
        </mxCell>
        <mxCell id="x7HW12mAu4AbSY8qC2cj-294" value="" style="endArrow=none;html=1;rounded=0;exitX=0.5;exitY=0;exitDx=0;exitDy=0;" parent="x7HW12mAu4AbSY8qC2cj-273" source="x7HW12mAu4AbSY8qC2cj-275" target="x7HW12mAu4AbSY8qC2cj-274" edge="1">
          <mxGeometry width="50" height="50" relative="1" as="geometry">
            <mxPoint x="720" y="315" as="sourcePoint" />
            <mxPoint x="770" y="265" as="targetPoint" />
          </mxGeometry>
        </mxCell>
        <mxCell id="x7HW12mAu4AbSY8qC2cj-296" value="" style="endArrow=none;html=1;rounded=0;exitX=0.5;exitY=0;exitDx=0;exitDy=0;" parent="x7HW12mAu4AbSY8qC2cj-273" source="x7HW12mAu4AbSY8qC2cj-282" edge="1">
          <mxGeometry width="50" height="50" relative="1" as="geometry">
            <mxPoint x="1120" y="215" as="sourcePoint" />
            <mxPoint x="680" y="95" as="targetPoint" />
          </mxGeometry>
        </mxCell>
        <mxCell id="x7HW12mAu4AbSY8qC2cj-298" value="" style="endArrow=none;html=1;rounded=0;entryX=0.5;entryY=1;entryDx=0;entryDy=0;exitX=0.5;exitY=0;exitDx=0;exitDy=0;" parent="x7HW12mAu4AbSY8qC2cj-273" source="x7HW12mAu4AbSY8qC2cj-278" target="x7HW12mAu4AbSY8qC2cj-275" edge="1">
          <mxGeometry width="50" height="50" relative="1" as="geometry">
            <mxPoint x="817" y="495" as="sourcePoint" />
            <mxPoint x="867" y="445" as="targetPoint" />
          </mxGeometry>
        </mxCell>
        <mxCell id="x7HW12mAu4AbSY8qC2cj-299" value="" style="endArrow=none;html=1;rounded=0;entryX=0.5;entryY=1;entryDx=0;entryDy=0;exitX=0.5;exitY=0;exitDx=0;exitDy=0;" parent="x7HW12mAu4AbSY8qC2cj-273" source="x7HW12mAu4AbSY8qC2cj-276" target="x7HW12mAu4AbSY8qC2cj-275" edge="1">
          <mxGeometry width="50" height="50" relative="1" as="geometry">
            <mxPoint x="490" y="495" as="sourcePoint" />
            <mxPoint x="540" y="445" as="targetPoint" />
          </mxGeometry>
        </mxCell>
        <mxCell id="x7HW12mAu4AbSY8qC2cj-300" value="" style="endArrow=none;html=1;rounded=0;entryX=0.5;entryY=1;entryDx=0;entryDy=0;exitX=0.5;exitY=0;exitDx=0;exitDy=0;" parent="x7HW12mAu4AbSY8qC2cj-273" source="x7HW12mAu4AbSY8qC2cj-277" target="x7HW12mAu4AbSY8qC2cj-275" edge="1">
          <mxGeometry width="50" height="50" relative="1" as="geometry">
            <mxPoint x="730" y="535" as="sourcePoint" />
            <mxPoint x="780" y="485" as="targetPoint" />
          </mxGeometry>
        </mxCell>
        <mxCell id="x7HW12mAu4AbSY8qC2cj-302" value="" style="endArrow=none;html=1;rounded=0;entryX=0.5;entryY=1;entryDx=0;entryDy=0;exitX=0.5;exitY=0;exitDx=0;exitDy=0;" parent="x7HW12mAu4AbSY8qC2cj-273" source="x7HW12mAu4AbSY8qC2cj-291" target="x7HW12mAu4AbSY8qC2cj-282" edge="1">
          <mxGeometry width="50" height="50" relative="1" as="geometry">
            <mxPoint x="1070" y="415" as="sourcePoint" />
            <mxPoint x="1120" y="365" as="targetPoint" />
          </mxGeometry>
        </mxCell>
        <mxCell id="x7HW12mAu4AbSY8qC2cj-305" value="" style="endArrow=none;html=1;rounded=0;" parent="x7HW12mAu4AbSY8qC2cj-273" source="x7HW12mAu4AbSY8qC2cj-286" target="x7HW12mAu4AbSY8qC2cj-279" edge="1">
          <mxGeometry width="50" height="50" relative="1" as="geometry">
            <mxPoint x="338" y="800" as="sourcePoint" />
            <mxPoint x="388" y="750" as="targetPoint" />
          </mxGeometry>
        </mxCell>
        <mxCell id="x7HW12mAu4AbSY8qC2cj-306" value="" style="endArrow=none;html=1;rounded=0;" parent="x7HW12mAu4AbSY8qC2cj-273" source="x7HW12mAu4AbSY8qC2cj-287" target="x7HW12mAu4AbSY8qC2cj-276" edge="1">
          <mxGeometry width="50" height="50" relative="1" as="geometry">
            <mxPoint x="426" y="795" as="sourcePoint" />
            <mxPoint x="476" y="745" as="targetPoint" />
          </mxGeometry>
        </mxCell>
        <mxCell id="x7HW12mAu4AbSY8qC2cj-307" value="" style="endArrow=none;html=1;rounded=0;" parent="x7HW12mAu4AbSY8qC2cj-273" source="x7HW12mAu4AbSY8qC2cj-288" target="x7HW12mAu4AbSY8qC2cj-277" edge="1">
          <mxGeometry width="50" height="50" relative="1" as="geometry">
            <mxPoint x="676" y="695" as="sourcePoint" />
            <mxPoint x="726" y="645" as="targetPoint" />
          </mxGeometry>
        </mxCell>
        <mxCell id="x7HW12mAu4AbSY8qC2cj-308" value="" style="endArrow=none;html=1;rounded=0;" parent="x7HW12mAu4AbSY8qC2cj-273" source="x7HW12mAu4AbSY8qC2cj-289" target="x7HW12mAu4AbSY8qC2cj-278" edge="1">
          <mxGeometry width="50" height="50" relative="1" as="geometry">
            <mxPoint x="1136" y="735" as="sourcePoint" />
            <mxPoint x="1186" y="685" as="targetPoint" />
          </mxGeometry>
        </mxCell>
        <mxCell id="x7HW12mAu4AbSY8qC2cj-309" value="" style="endArrow=none;html=1;rounded=0;exitX=0.5;exitY=0;exitDx=0;exitDy=0;" parent="x7HW12mAu4AbSY8qC2cj-273" source="x7HW12mAu4AbSY8qC2cj-311" edge="1">
          <mxGeometry width="50" height="50" relative="1" as="geometry">
            <mxPoint x="120" y="265" as="sourcePoint" />
            <mxPoint x="680" y="95" as="targetPoint" />
          </mxGeometry>
        </mxCell>
        <mxCell id="x7HW12mAu4AbSY8qC2cj-316" value="" style="endArrow=none;html=1;strokeWidth=1;rounded=0;fontFamily=Helvetica;fontSize=12;fontColor=default;exitX=0.5;exitY=0;exitDx=0;exitDy=0;entryX=0.5;entryY=1;entryDx=0;entryDy=0;" parent="x7HW12mAu4AbSY8qC2cj-273" source="x7HW12mAu4AbSY8qC2cj-279" target="x7HW12mAu4AbSY8qC2cj-275" edge="1">
          <mxGeometry width="50" height="50" relative="1" as="geometry">
            <mxPoint x="570" y="540" as="sourcePoint" />
            <mxPoint x="680" y="490" as="targetPoint" />
          </mxGeometry>
        </mxCell>
        <mxCell id="x7HW12mAu4AbSY8qC2cj-311" value="&lt;u&gt;ID&lt;/u&gt;" style="rhombus;whiteSpace=wrap;html=1;rotation=0;fontStyle=0;fillStyle=auto;" parent="x7HW12mAu4AbSY8qC2cj-273" vertex="1">
          <mxGeometry x="1060" y="393.75" width="120" height="112.5" as="geometry" />
        </mxCell>
        <mxCell id="x7HW12mAu4AbSY8qC2cj-331" value="c" style="group" parent="x7HW12mAu4AbSY8qC2cj-273" vertex="1" connectable="0">
          <mxGeometry x="-110" y="400" width="100" height="100" as="geometry" />
        </mxCell>
        <mxCell id="x7HW12mAu4AbSY8qC2cj-332" value="RestaurantFK" style="rhombus;whiteSpace=wrap;html=1;rotation=0;fontStyle=0;fillStyle=auto;" parent="x7HW12mAu4AbSY8qC2cj-331" vertex="1">
          <mxGeometry width="100" height="100" as="geometry" />
        </mxCell>
        <mxCell id="x7HW12mAu4AbSY8qC2cj-333" value="" style="endArrow=none;dashed=1;html=1;rounded=0;fontFamily=Helvetica;fontSize=12;fontColor=default;" parent="x7HW12mAu4AbSY8qC2cj-331" edge="1">
          <mxGeometry width="50" height="50" relative="1" as="geometry">
            <mxPoint x="31.25" y="56.25" as="sourcePoint" />
            <mxPoint x="68.75" y="56.25" as="targetPoint" />
          </mxGeometry>
        </mxCell>
        <mxCell id="x7HW12mAu4AbSY8qC2cj-337" style="edgeStyle=orthogonalEdgeStyle;rounded=0;orthogonalLoop=1;jettySize=auto;html=1;strokeWidth=1;fontFamily=Helvetica;fontSize=12;fontColor=default;entryX=0.1;entryY=0.589;entryDx=0;entryDy=0;entryPerimeter=0;dashed=1;" parent="x7HW12mAu4AbSY8qC2cj-273" source="x7HW12mAu4AbSY8qC2cj-332" target="x7HW12mAu4AbSY8qC2cj-311" edge="1">
          <mxGeometry relative="1" as="geometry">
            <mxPoint x="1090" y="560" as="targetPoint" />
            <Array as="points">
              <mxPoint x="-60" y="800" />
              <mxPoint x="1072" y="800" />
            </Array>
          </mxGeometry>
        </mxCell>
        <mxCell id="x7HW12mAu4AbSY8qC2cj-319" style="edgeStyle=orthogonalEdgeStyle;rounded=0;orthogonalLoop=1;jettySize=auto;html=1;strokeWidth=1;fontFamily=Helvetica;fontSize=12;fontColor=default;dashed=1;entryX=0.933;entryY=0.572;entryDx=0;entryDy=0;entryPerimeter=0;" parent="1" source="x7HW12mAu4AbSY8qC2cj-210" target="x7HW12mAu4AbSY8qC2cj-311" edge="1">
          <mxGeometry relative="1" as="geometry">
            <mxPoint x="-540" y="850" as="targetPoint" />
            <Array as="points">
              <mxPoint x="-280" y="910" />
              <mxPoint x="-588" y="910" />
            </Array>
          </mxGeometry>
        </mxCell>
        <mxCell id="x7HW12mAu4AbSY8qC2cj-320" value="" style="endArrow=none;html=1;rounded=0;strokeWidth=1;fontFamily=Helvetica;fontSize=12;fontColor=default;entryX=0.5;entryY=1;entryDx=0;entryDy=0;exitX=0.5;exitY=0;exitDx=0;exitDy=0;" parent="1" source="x7HW12mAu4AbSY8qC2cj-215" target="x7HW12mAu4AbSY8qC2cj-17" edge="1">
          <mxGeometry width="50" height="50" relative="1" as="geometry">
            <mxPoint x="410" y="630" as="sourcePoint" />
            <mxPoint x="460" y="580" as="targetPoint" />
          </mxGeometry>
        </mxCell>
        <mxCell id="x7HW12mAu4AbSY8qC2cj-21" value="StockItem" style="ellipse;shape=doubleEllipse;whiteSpace=wrap;html=1;" parent="1" vertex="1">
          <mxGeometry x="-2175.5" y="350" width="154" height="95" as="geometry" />
        </mxCell>
        <mxCell id="x7HW12mAu4AbSY8qC2cj-321" value="Ingredient" style="ellipse;whiteSpace=wrap;html=1;strokeColor=default;fontFamily=Helvetica;fontSize=12;fontColor=default;fillColor=default;" parent="1" vertex="1">
          <mxGeometry x="-2158.5" y="757.5" width="120" height="80" as="geometry" />
        </mxCell>
        <mxCell id="x7HW12mAu4AbSY8qC2cj-322" value="&lt;u&gt;ID&lt;/u&gt;" style="rhombus;whiteSpace=wrap;html=1;rotation=0;fontStyle=0;fillStyle=auto;" parent="1" vertex="1">
          <mxGeometry x="-2606" y="741.25" width="120" height="112.5" as="geometry" />
        </mxCell>
        <mxCell id="x7HW12mAu4AbSY8qC2cj-324" value="TimeChecked" style="ellipse;whiteSpace=wrap;html=1;strokeColor=default;fontFamily=Helvetica;fontSize=12;fontColor=default;fillColor=default;" parent="1" vertex="1">
          <mxGeometry x="-2440" y="760" width="120" height="80" as="geometry" />
        </mxCell>
        <mxCell id="x7HW12mAu4AbSY8qC2cj-325" value="Ingredient" style="ellipse;whiteSpace=wrap;html=1;strokeColor=default;fontFamily=Helvetica;fontSize=12;fontColor=default;fillColor=default;" parent="1" vertex="1">
          <mxGeometry x="-2011.5" y="920" width="120" height="80" as="geometry" />
        </mxCell>
        <mxCell id="x7HW12mAu4AbSY8qC2cj-326" value="Qty" style="ellipse;whiteSpace=wrap;html=1;strokeColor=default;fontFamily=Helvetica;fontSize=12;fontColor=default;fillColor=default;" parent="1" vertex="1">
          <mxGeometry x="-2158.5" y="920" width="120" height="80" as="geometry" />
        </mxCell>
        <mxCell id="x7HW12mAu4AbSY8qC2cj-327" value="TimeChecked" style="ellipse;whiteSpace=wrap;html=1;strokeColor=default;fontFamily=Helvetica;fontSize=12;fontColor=default;fillColor=default;" parent="1" vertex="1">
          <mxGeometry x="-2308.5" y="920" width="120" height="80" as="geometry" />
        </mxCell>
        <mxCell id="x7HW12mAu4AbSY8qC2cj-328" value="" style="endArrow=none;html=1;rounded=0;strokeWidth=1;fontFamily=Helvetica;fontSize=12;fontColor=default;entryX=0.5;entryY=1;entryDx=0;entryDy=0;exitX=0.5;exitY=0;exitDx=0;exitDy=0;" parent="1" source="x7HW12mAu4AbSY8qC2cj-327" target="x7HW12mAu4AbSY8qC2cj-321" edge="1">
          <mxGeometry width="50" height="50" relative="1" as="geometry">
            <mxPoint x="-2290" y="850" as="sourcePoint" />
            <mxPoint x="-2240" y="800" as="targetPoint" />
          </mxGeometry>
        </mxCell>
        <mxCell id="x7HW12mAu4AbSY8qC2cj-329" value="" style="endArrow=none;html=1;rounded=0;strokeWidth=1;fontFamily=Helvetica;fontSize=12;fontColor=default;entryX=0.5;entryY=1;entryDx=0;entryDy=0;" parent="1" target="x7HW12mAu4AbSY8qC2cj-321" edge="1">
          <mxGeometry width="50" height="50" relative="1" as="geometry">
            <mxPoint x="-2098" y="920" as="sourcePoint" />
            <mxPoint x="-2050" y="860" as="targetPoint" />
          </mxGeometry>
        </mxCell>
        <mxCell id="x7HW12mAu4AbSY8qC2cj-330" value="" style="endArrow=none;html=1;rounded=0;strokeWidth=1;fontFamily=Helvetica;fontSize=12;fontColor=default;entryX=0.5;entryY=1;entryDx=0;entryDy=0;exitX=0.5;exitY=0;exitDx=0;exitDy=0;" parent="1" source="x7HW12mAu4AbSY8qC2cj-325" target="x7HW12mAu4AbSY8qC2cj-321" edge="1">
          <mxGeometry width="50" height="50" relative="1" as="geometry">
            <mxPoint x="-1960" y="910" as="sourcePoint" />
            <mxPoint x="-1910" y="860" as="targetPoint" />
          </mxGeometry>
        </mxCell>
        <mxCell id="x7HW12mAu4AbSY8qC2cj-334" value="" style="endArrow=none;html=1;rounded=0;strokeWidth=1;fontFamily=Helvetica;fontSize=12;fontColor=default;entryX=0.5;entryY=1;entryDx=0;entryDy=0;exitX=0.5;exitY=0;exitDx=0;exitDy=0;" parent="1" source="x7HW12mAu4AbSY8qC2cj-324" target="x7HW12mAu4AbSY8qC2cj-21" edge="1">
          <mxGeometry width="50" height="50" relative="1" as="geometry">
            <mxPoint x="-2330" y="720" as="sourcePoint" />
            <mxPoint x="-2280" y="670" as="targetPoint" />
          </mxGeometry>
        </mxCell>
        <mxCell id="x7HW12mAu4AbSY8qC2cj-335" value="" style="endArrow=none;html=1;rounded=0;strokeWidth=1;fontFamily=Helvetica;fontSize=12;fontColor=default;entryX=0.5;entryY=1;entryDx=0;entryDy=0;exitX=0.5;exitY=0;exitDx=0;exitDy=0;" parent="1" source="x7HW12mAu4AbSY8qC2cj-321" target="x7HW12mAu4AbSY8qC2cj-21" edge="1">
          <mxGeometry width="50" height="50" relative="1" as="geometry">
            <mxPoint x="-2140" y="650" as="sourcePoint" />
            <mxPoint x="-2090" y="600" as="targetPoint" />
          </mxGeometry>
        </mxCell>
        <mxCell id="x7HW12mAu4AbSY8qC2cj-336" value="" style="endArrow=none;html=1;rounded=0;strokeWidth=1;fontFamily=Helvetica;fontSize=12;fontColor=default;exitX=0.5;exitY=0;exitDx=0;exitDy=0;entryX=0.5;entryY=1;entryDx=0;entryDy=0;" parent="1" source="x7HW12mAu4AbSY8qC2cj-332" target="x7HW12mAu4AbSY8qC2cj-21" edge="1">
          <mxGeometry width="50" height="50" relative="1" as="geometry">
            <mxPoint x="-1980" y="660" as="sourcePoint" />
            <mxPoint x="-2100" y="440" as="targetPoint" />
          </mxGeometry>
        </mxCell>
        <mxCell id="x7HW12mAu4AbSY8qC2cj-338" value="" style="endArrow=none;html=1;rounded=0;strokeWidth=1;fontFamily=Helvetica;fontSize=12;fontColor=default;exitX=0.5;exitY=0;exitDx=0;exitDy=0;entryX=0.5;entryY=1;entryDx=0;entryDy=0;" parent="1" source="x7HW12mAu4AbSY8qC2cj-322" target="x7HW12mAu4AbSY8qC2cj-21" edge="1">
          <mxGeometry width="50" height="50" relative="1" as="geometry">
            <mxPoint x="-2460" y="690" as="sourcePoint" />
            <mxPoint x="-2100" y="440" as="targetPoint" />
          </mxGeometry>
        </mxCell>
        <mxCell id="x7HW12mAu4AbSY8qC2cj-339" value="" style="rounded=0;whiteSpace=wrap;html=1;" parent="1" vertex="1">
          <mxGeometry x="-2403" y="925" width="46" height="70" as="geometry" />
        </mxCell>
        <mxCell id="x7HW12mAu4AbSY8qC2cj-341" value="" style="rounded=0;whiteSpace=wrap;html=1;" parent="1" vertex="1">
          <mxGeometry x="-2271.5" y="1030" width="46" height="70" as="geometry" />
        </mxCell>
        <mxCell id="x7HW12mAu4AbSY8qC2cj-342" value="" style="rounded=0;whiteSpace=wrap;html=1;" parent="1" vertex="1">
          <mxGeometry x="-2122.5" y="1030" width="46" height="70" as="geometry" />
        </mxCell>
        <mxCell id="x7HW12mAu4AbSY8qC2cj-343" value="" style="rounded=0;whiteSpace=wrap;html=1;" parent="1" vertex="1">
          <mxGeometry x="-1974.5" y="1030" width="46" height="70" as="geometry" />
        </mxCell>
        <mxCell id="x7HW12mAu4AbSY8qC2cj-344" value="" style="endArrow=none;html=1;rounded=0;strokeWidth=1;fontFamily=Helvetica;fontSize=12;fontColor=default;entryX=0.5;entryY=1;entryDx=0;entryDy=0;" parent="1" source="x7HW12mAu4AbSY8qC2cj-341" target="x7HW12mAu4AbSY8qC2cj-327" edge="1">
          <mxGeometry width="50" height="50" relative="1" as="geometry">
            <mxPoint x="-2250" y="1050" as="sourcePoint" />
            <mxPoint x="-2200" y="1000" as="targetPoint" />
          </mxGeometry>
        </mxCell>
        <mxCell id="x7HW12mAu4AbSY8qC2cj-345" value="" style="endArrow=none;html=1;rounded=0;strokeWidth=1;fontFamily=Helvetica;fontSize=12;fontColor=default;entryX=0.5;entryY=1;entryDx=0;entryDy=0;" parent="1" source="x7HW12mAu4AbSY8qC2cj-339" target="x7HW12mAu4AbSY8qC2cj-324" edge="1">
          <mxGeometry width="50" height="50" relative="1" as="geometry">
            <mxPoint x="-2380" y="920" as="sourcePoint" />
            <mxPoint x="-2330" y="870" as="targetPoint" />
          </mxGeometry>
        </mxCell>
        <mxCell id="x7HW12mAu4AbSY8qC2cj-346" value="" style="endArrow=none;html=1;rounded=0;strokeWidth=1;fontFamily=Helvetica;fontSize=12;fontColor=default;entryX=0.5;entryY=1;entryDx=0;entryDy=0;" parent="1" source="x7HW12mAu4AbSY8qC2cj-342" target="x7HW12mAu4AbSY8qC2cj-326" edge="1">
          <mxGeometry width="50" height="50" relative="1" as="geometry">
            <mxPoint x="-2140" y="1060" as="sourcePoint" />
            <mxPoint x="-2090" y="1010" as="targetPoint" />
          </mxGeometry>
        </mxCell>
        <mxCell id="x7HW12mAu4AbSY8qC2cj-347" value="" style="endArrow=none;html=1;rounded=0;strokeWidth=1;fontFamily=Helvetica;fontSize=12;fontColor=default;entryX=0.5;entryY=1;entryDx=0;entryDy=0;exitX=0.5;exitY=0;exitDx=0;exitDy=0;" parent="1" source="x7HW12mAu4AbSY8qC2cj-343" target="x7HW12mAu4AbSY8qC2cj-325" edge="1">
          <mxGeometry width="50" height="50" relative="1" as="geometry">
            <mxPoint x="-2000" y="1060" as="sourcePoint" />
            <mxPoint x="-1950" y="1010" as="targetPoint" />
          </mxGeometry>
        </mxCell>
        <mxCell id="x7HW12mAu4AbSY8qC2cj-367" value="" style="endArrow=none;html=1;rounded=0;strokeWidth=1;fontFamily=Helvetica;fontSize=12;fontColor=default;entryX=0.5;entryY=1;entryDx=0;entryDy=0;exitX=0.5;exitY=0;exitDx=0;exitDy=0;" parent="1" source="x7HW12mAu4AbSY8qC2cj-202" target="x7HW12mAu4AbSY8qC2cj-118" edge="1">
          <mxGeometry width="50" height="50" relative="1" as="geometry">
            <mxPoint x="1140" y="730" as="sourcePoint" />
            <mxPoint x="1190" y="680" as="targetPoint" />
          </mxGeometry>
        </mxCell>
        <mxCell id="x7HW12mAu4AbSY8qC2cj-375" style="edgeStyle=orthogonalEdgeStyle;rounded=0;orthogonalLoop=1;jettySize=auto;html=1;entryX=0.311;entryY=0.829;entryDx=0;entryDy=0;entryPerimeter=0;strokeWidth=1;fontFamily=Helvetica;fontSize=12;fontColor=default;dashed=1;" parent="1" target="x7HW12mAu4AbSY8qC2cj-311" edge="1">
          <mxGeometry relative="1" as="geometry">
            <Array as="points">
              <mxPoint x="-2840" y="1170" />
              <mxPoint x="-663" y="1170" />
            </Array>
            <mxPoint x="-2840" y="837.4999999999995" as="sourcePoint" />
          </mxGeometry>
        </mxCell>
        <mxCell id="x7HW12mAu4AbSY8qC2cj-377" value="NetWorth" style="ellipse;whiteSpace=wrap;html=1;perimeterSpacing=1;" parent="1" vertex="1">
          <mxGeometry x="-3260" y="752.5" width="146" height="90" as="geometry" />
        </mxCell>
        <mxCell id="x7HW12mAu4AbSY8qC2cj-378" value="Name" style="ellipse;whiteSpace=wrap;html=1;perimeterSpacing=1;" parent="1" vertex="1">
          <mxGeometry x="-3430" y="752.5" width="146" height="90" as="geometry" />
        </mxCell>
        <mxCell id="x7HW12mAu4AbSY8qC2cj-379" value="Capabilities" style="ellipse;shape=doubleEllipse;whiteSpace=wrap;html=1;" parent="1" vertex="1">
          <mxGeometry x="-3080" y="747.5" width="154" height="95" as="geometry" />
        </mxCell>
        <mxCell id="x7HW12mAu4AbSY8qC2cj-380" value="" style="endArrow=none;html=1;rounded=0;strokeWidth=1;fontFamily=Helvetica;fontSize=12;fontColor=default;entryX=0.5;entryY=1;entryDx=0;entryDy=0;exitX=0.5;exitY=0;exitDx=0;exitDy=0;" parent="1" source="x7HW12mAu4AbSY8qC2cj-378" target="x7HW12mAu4AbSY8qC2cj-20" edge="1">
          <mxGeometry width="50" height="50" relative="1" as="geometry">
            <mxPoint x="-3310" y="700" as="sourcePoint" />
            <mxPoint x="-3260" y="650" as="targetPoint" />
          </mxGeometry>
        </mxCell>
        <mxCell id="x7HW12mAu4AbSY8qC2cj-381" value="" style="endArrow=none;html=1;rounded=0;strokeWidth=1;fontFamily=Helvetica;fontSize=12;fontColor=default;entryX=0.5;entryY=1;entryDx=0;entryDy=0;exitX=0.5;exitY=0;exitDx=0;exitDy=0;" parent="1" source="x7HW12mAu4AbSY8qC2cj-377" target="x7HW12mAu4AbSY8qC2cj-20" edge="1">
          <mxGeometry width="50" height="50" relative="1" as="geometry">
            <mxPoint x="-3220" y="690" as="sourcePoint" />
            <mxPoint x="-3170" y="640" as="targetPoint" />
          </mxGeometry>
        </mxCell>
        <mxCell id="x7HW12mAu4AbSY8qC2cj-382" value="" style="endArrow=none;html=1;rounded=0;strokeWidth=1;fontFamily=Helvetica;fontSize=12;fontColor=default;entryX=0.5;entryY=1;entryDx=0;entryDy=0;exitX=0.5;exitY=0;exitDx=0;exitDy=0;" parent="1" source="x7HW12mAu4AbSY8qC2cj-379" target="x7HW12mAu4AbSY8qC2cj-20" edge="1">
          <mxGeometry width="50" height="50" relative="1" as="geometry">
            <mxPoint x="-3120" y="680" as="sourcePoint" />
            <mxPoint x="-3070" y="630" as="targetPoint" />
          </mxGeometry>
        </mxCell>
        <mxCell id="x7HW12mAu4AbSY8qC2cj-383" value="" style="rounded=0;whiteSpace=wrap;html=1;" parent="1" vertex="1">
          <mxGeometry x="-3026" y="895" width="46" height="70" as="geometry" />
        </mxCell>
        <mxCell id="x7HW12mAu4AbSY8qC2cj-384" value="" style="rounded=0;whiteSpace=wrap;html=1;" parent="1" vertex="1">
          <mxGeometry x="-3210" y="895" width="46" height="70" as="geometry" />
        </mxCell>
        <mxCell id="x7HW12mAu4AbSY8qC2cj-385" value="" style="rounded=0;whiteSpace=wrap;html=1;" parent="1" vertex="1">
          <mxGeometry x="-3380" y="895" width="46" height="70" as="geometry" />
        </mxCell>
        <mxCell id="x7HW12mAu4AbSY8qC2cj-386" value="" style="endArrow=none;html=1;rounded=0;strokeWidth=1;fontFamily=Helvetica;fontSize=12;fontColor=default;entryX=0.5;entryY=1;entryDx=0;entryDy=0;exitX=0.5;exitY=0;exitDx=0;exitDy=0;" parent="1" source="x7HW12mAu4AbSY8qC2cj-385" target="x7HW12mAu4AbSY8qC2cj-378" edge="1">
          <mxGeometry width="50" height="50" relative="1" as="geometry">
            <mxPoint x="-3430" y="910" as="sourcePoint" />
            <mxPoint x="-3380" y="860" as="targetPoint" />
          </mxGeometry>
        </mxCell>
        <mxCell id="x7HW12mAu4AbSY8qC2cj-387" value="" style="endArrow=none;html=1;rounded=0;strokeWidth=1;fontFamily=Helvetica;fontSize=12;fontColor=default;entryX=0.5;entryY=1;entryDx=0;entryDy=0;exitX=0.5;exitY=0;exitDx=0;exitDy=0;" parent="1" source="x7HW12mAu4AbSY8qC2cj-384" target="x7HW12mAu4AbSY8qC2cj-377" edge="1">
          <mxGeometry width="50" height="50" relative="1" as="geometry">
            <mxPoint x="-3180" y="910" as="sourcePoint" />
            <mxPoint x="-3130" y="860" as="targetPoint" />
          </mxGeometry>
        </mxCell>
        <mxCell id="x7HW12mAu4AbSY8qC2cj-388" value="" style="endArrow=none;html=1;rounded=0;strokeWidth=1;fontFamily=Helvetica;fontSize=12;fontColor=default;entryX=0.5;entryY=1;entryDx=0;entryDy=0;exitX=0.5;exitY=0;exitDx=0;exitDy=0;" parent="1" source="x7HW12mAu4AbSY8qC2cj-383" target="x7HW12mAu4AbSY8qC2cj-379" edge="1">
          <mxGeometry width="50" height="50" relative="1" as="geometry">
            <mxPoint x="-2980" y="910" as="sourcePoint" />
            <mxPoint x="-2930" y="860" as="targetPoint" />
          </mxGeometry>
        </mxCell>
        <mxCell id="x7HW12mAu4AbSY8qC2cj-389" value="&lt;u&gt;ID&lt;/u&gt;" style="rhombus;whiteSpace=wrap;html=1;rotation=0;fontStyle=0;fillStyle=auto;" parent="1" vertex="1">
          <mxGeometry x="-3570" y="745" width="120" height="112.5" as="geometry" />
        </mxCell>
        <mxCell id="x7HW12mAu4AbSY8qC2cj-391" value="" style="endArrow=none;html=1;rounded=0;strokeWidth=1;fontFamily=Helvetica;fontSize=12;fontColor=default;entryX=0.5;entryY=1;entryDx=0;entryDy=0;exitX=0.5;exitY=0;exitDx=0;exitDy=0;" parent="1" source="x7HW12mAu4AbSY8qC2cj-389" target="x7HW12mAu4AbSY8qC2cj-20" edge="1">
          <mxGeometry width="50" height="50" relative="1" as="geometry">
            <mxPoint x="-3030" y="680" as="sourcePoint" />
            <mxPoint x="-2980" y="630" as="targetPoint" />
          </mxGeometry>
        </mxCell>
        <mxCell id="x7HW12mAu4AbSY8qC2cj-399" value="" style="endArrow=none;html=1;rounded=0;strokeWidth=1;fontFamily=Helvetica;fontSize=12;fontColor=default;exitX=0.5;exitY=0;exitDx=0;exitDy=0;entryX=0.5;entryY=1;entryDx=0;entryDy=0;" parent="1" source="x7HW12mAu4AbSY8qC2cj-274" target="x7HW12mAu4AbSY8qC2cj-3" edge="1">
          <mxGeometry width="50" height="50" relative="1" as="geometry">
            <mxPoint x="-1000" y="230" as="sourcePoint" />
            <mxPoint x="-950" y="180" as="targetPoint" />
          </mxGeometry>
        </mxCell>
        <mxCell id="GoS6CCrp2pJAP6mVK4n8-1" value="" style="endArrow=none;html=1;rounded=0;entryX=0.5;entryY=1;entryDx=0;entryDy=0;exitX=0.5;exitY=0;exitDx=0;exitDy=0;" edge="1" parent="1" source="x7HW12mAu4AbSY8qC2cj-17" target="x7HW12mAu4AbSY8qC2cj-3">
          <mxGeometry width="50" height="50" relative="1" as="geometry">
            <mxPoint x="-180" y="150" as="sourcePoint" />
            <mxPoint x="-130" y="100" as="targetPoint" />
          </mxGeometry>
        </mxCell>
        <mxCell id="GoS6CCrp2pJAP6mVK4n8-2" value="" style="endArrow=none;html=1;rounded=0;entryX=0.5;entryY=0;entryDx=0;entryDy=0;exitX=0.5;exitY=1;exitDx=0;exitDy=0;" edge="1" parent="1" source="x7HW12mAu4AbSY8qC2cj-3" target="x7HW12mAu4AbSY8qC2cj-118">
          <mxGeometry width="50" height="50" relative="1" as="geometry">
            <mxPoint x="680" y="180" as="sourcePoint" />
            <mxPoint x="730" y="130" as="targetPoint" />
          </mxGeometry>
        </mxCell>
        <mxCell id="GoS6CCrp2pJAP6mVK4n8-3" value="" style="endArrow=none;html=1;rounded=0;entryX=0.5;entryY=0;entryDx=0;entryDy=0;exitX=0.5;exitY=1;exitDx=0;exitDy=0;" edge="1" parent="1" source="x7HW12mAu4AbSY8qC2cj-3" target="x7HW12mAu4AbSY8qC2cj-13">
          <mxGeometry width="50" height="50" relative="1" as="geometry">
            <mxPoint x="1810" y="190" as="sourcePoint" />
            <mxPoint x="1860" y="140" as="targetPoint" />
          </mxGeometry>
        </mxCell>
        <mxCell id="GoS6CCrp2pJAP6mVK4n8-4" value="" style="endArrow=none;html=1;rounded=0;entryX=0.5;entryY=1;entryDx=0;entryDy=0;exitX=0.5;exitY=0;exitDx=0;exitDy=0;" edge="1" parent="1" source="x7HW12mAu4AbSY8qC2cj-21" target="x7HW12mAu4AbSY8qC2cj-3">
          <mxGeometry width="50" height="50" relative="1" as="geometry">
            <mxPoint x="-2000" y="180" as="sourcePoint" />
            <mxPoint x="-1950" y="130" as="targetPoint" />
          </mxGeometry>
        </mxCell>
        <mxCell id="GoS6CCrp2pJAP6mVK4n8-6" value="" style="endArrow=none;html=1;rounded=0;exitX=0.5;exitY=0;exitDx=0;exitDy=0;entryX=0.5;entryY=1;entryDx=0;entryDy=0;" edge="1" parent="1" source="x7HW12mAu4AbSY8qC2cj-20" target="x7HW12mAu4AbSY8qC2cj-3">
          <mxGeometry width="50" height="50" relative="1" as="geometry">
            <mxPoint x="-3650" y="200" as="sourcePoint" />
            <mxPoint x="-1330" y="-190" as="targetPoint" />
          </mxGeometry>
        </mxCell>
        <mxCell id="GoS6CCrp2pJAP6mVK4n8-7" value="c" style="group" vertex="1" connectable="0" parent="1">
          <mxGeometry x="-2890" y="740" width="100" height="100" as="geometry" />
        </mxCell>
        <mxCell id="GoS6CCrp2pJAP6mVK4n8-8" value="RestaurantFK" style="rhombus;whiteSpace=wrap;html=1;rotation=0;fontStyle=0;fillStyle=auto;" vertex="1" parent="GoS6CCrp2pJAP6mVK4n8-7">
          <mxGeometry width="100" height="100" as="geometry" />
        </mxCell>
        <mxCell id="GoS6CCrp2pJAP6mVK4n8-9" value="" style="endArrow=none;dashed=1;html=1;rounded=0;fontFamily=Helvetica;fontSize=12;fontColor=default;" edge="1" parent="GoS6CCrp2pJAP6mVK4n8-7">
          <mxGeometry width="50" height="50" relative="1" as="geometry">
            <mxPoint x="31.25" y="56.25" as="sourcePoint" />
            <mxPoint x="68.75" y="56.25" as="targetPoint" />
          </mxGeometry>
        </mxCell>
        <mxCell id="GoS6CCrp2pJAP6mVK4n8-10" value="" style="endArrow=none;html=1;rounded=0;entryX=0.5;entryY=0;entryDx=0;entryDy=0;exitX=0.5;exitY=1;exitDx=0;exitDy=0;" edge="1" parent="1" source="x7HW12mAu4AbSY8qC2cj-20" target="GoS6CCrp2pJAP6mVK4n8-8">
          <mxGeometry width="50" height="50" relative="1" as="geometry">
            <mxPoint x="-2940" y="610" as="sourcePoint" />
            <mxPoint x="-2890" y="560" as="targetPoint" />
          </mxGeometry>
        </mxCell>
      </root>
    </mxGraphModel>
  </diagram>
</mxfile>
